<svg width="260" height="20" viewBox="0 0 260 20" fill="none" xmlns="http://www.w3.org/2000/svg">
<path d="M100.935 19.3919H113.797V16.2957H104.191V11.2634H113.241V8.16711H104.191V3.47799H113.801V0.381732H100.938V19.3919H100.935ZM88.2661 0.377998H85.0094V19.3882H97.1781V16.2659H88.2661V0.377998ZM3.26853 9.87937C3.10439 3.4071 12.0649 0.598098 15.7057 5.85053L18.1902 3.63092C12.6804 -3.51283 -0.372359 0.575714 0.00814404 9.88311C-0.215681 19.4031 12.9452 23.529 18.5968 15.6056L15.8102 13.7702C12.1656 19.1756 3.10812 16.4449 3.26853 9.87937ZM79.3131 9.39069C80.1674 7.79034 80.1263 5.70131 79.6488 4.33598C79.2683 3.25043 78.5222 2.24695 77.5747 1.57547C77.0301 1.19124 76.3773 0.85177 75.6237 0.631675C74.7918 0.389198 73.9786 0.325778 73.0236 0.325778H65.0144V19.3882H68.2822V12.8301L72.2775 12.8264C72.5536 12.8301 72.8222 12.8264 73.0796 12.8152L76.8324 19.3882H80.8239L76.4929 12.0244C77.9179 11.3454 78.8095 10.3345 79.3131 9.39069ZM73.7324 9.75254C73.4377 9.78238 73.0759 9.7973 72.7289 9.7973H68.2822V3.37353H72.8222C73.2027 3.37353 73.5421 3.39591 73.7995 3.40337C75.5043 3.44814 76.8697 4.86942 76.8697 6.58169C76.8734 8.30141 75.4932 9.57348 73.7324 9.75254ZM35.3016 8.19323H26.4493V0.381732H23.1927V19.3919H26.4493V11.2634H35.3016V19.3919H38.5583V0.381732H35.3016V8.19323ZM50.1487 0.377998L42.4006 19.3882H45.9147L47.5113 15.3519H55.9234L57.4939 19.3882H61.1161L53.3382 0.377998H50.1487ZM48.7311 12.2557C49.522 10.245 51.0365 6.33921 51.7155 4.63814C52.3981 6.34667 53.9052 10.2375 54.6998 12.2557H48.7311ZM224.456 3.45187H230.548V19.3919H233.805V3.45187H239.896V0.381732H224.456V3.45187ZM217.387 19.3919H220.644V0.381732H217.387V19.3919ZM255.818 0.377998V8.18949H246.966V0.377998H243.709V19.3882H246.966V11.2596H255.818V19.3882H259.074V0.377998H255.818ZM129.894 9.46904C128.89 8.93932 126.734 8.35363 125.104 7.95821C124.272 7.75677 123.537 7.47699 122.922 7.13379C122.291 6.78313 121.873 6.17881 121.851 5.59686C121.825 4.91046 122.09 4.33225 122.634 3.88087C123.257 3.36607 124.138 3.23924 124.835 3.18328C125.011 3.17209 125.186 3.16462 125.361 3.16462C125.466 3.16462 125.57 3.16836 125.675 3.17209C126.462 3.20566 127.275 3.37353 128.092 3.66823C129.338 4.11961 130.498 5.15667 130.513 5.16413L130.756 5.38049L132.915 2.86993L132.684 2.66475C131.692 1.78437 130.588 1.10917 129.405 0.665247C128.234 0.225058 126.898 0.00123343 125.436 0.00123343H125.309C123.847 0.0124247 122.295 0.407841 121.254 1.03082C119.467 2.10518 118.445 3.80626 118.52 5.58567C118.606 7.61502 119.687 9.14822 121.728 10.1442C123.004 10.7635 124.761 11.2074 126.089 11.5431C126.298 11.5954 126.492 11.6439 126.667 11.6924C128.551 12.1848 129.666 13.1547 129.655 14.285C129.644 15.2102 128.946 15.9488 128.301 16.2435C127.477 16.6202 126.57 16.8105 125.604 16.8105C124.358 16.8105 123.261 16.4934 122.56 16.2286C120.948 15.6168 119.676 14.3522 119.665 14.341L119.43 14.1059L117.143 16.5941L117.363 16.8068C118.359 17.7841 119.65 18.5936 121.206 19.2203C122.545 19.7575 123.847 20 125.429 20C125.529 20 125.63 20 125.734 19.9963C127.342 19.9664 128.834 19.6158 130.043 18.9853C131.468 18.243 132.99 16.4561 132.971 14.2887C132.949 11.4984 131.035 10.0734 129.894 9.46904ZM163.389 8.02163H159.592L157.588 11.3641L155.414 9.06242C155.604 8.92813 155.794 8.79756 155.977 8.66327C159.968 5.51479 157.704 -0.618023 152.776 0.075835C150.743 0.251165 149.355 1.665 148.833 3.35861C148.505 4.42178 148.516 5.59686 148.923 6.64137C149.21 7.38 149.654 8.00297 150.225 8.57373C150.225 8.57373 150.046 8.7043 149.911 8.7901C148.885 9.43546 148.173 10.1554 147.651 10.909C146.576 12.4608 146.416 14.2104 146.946 15.7138C147.468 17.1947 148.591 18.4892 149.982 19.2651C152.235 20.4327 155.787 20.3395 158.017 16.6799L160.528 19.3546H165.083L159.909 13.8448L163.389 8.02163ZM152.265 3.38473C152.605 3.11614 152.963 2.99303 153.306 2.98183C153.649 2.99303 154.007 3.11614 154.347 3.38473C155.88 4.72395 154.466 6.0445 153.306 6.9883C152.142 6.04077 150.732 4.72395 152.265 3.38473ZM154.959 15.4564C154.231 16.2248 153.53 16.6091 152.776 16.6277C152.064 16.6501 151.385 16.3927 150.866 15.9077C150.348 15.4228 150.053 14.7662 150.031 14.0612C150.012 13.427 150.228 12.804 150.635 12.3116C151.09 11.7632 151.739 11.3044 152.62 10.909L155.839 14.3335C155.548 14.7513 155.179 15.2251 154.959 15.4564ZM198.728 19.3919H211.59V16.2957H201.98V11.2634H211.03V8.16711H201.98V3.47799H211.59V0.381732H198.728V19.3919ZM194.568 0.385466H190.368L181.284 9.65556V0.385466H177.983V19.3845H181.284V13.8597L184.709 10.4091L190.92 19.3845H195.019L187.118 7.9694L194.568 0.385466Z" fill="black"/>
</svg>
